<?xml version="1.0" standalone="no"?>
<!DOCTYPE svg PUBLIC "-//W3C//DTD SVG 20010904//EN"
 "http://www.w3.org/TR/2001/REC-SVG-20010904/DTD/svg10.dtd">
<svg version="1.0" xmlns="http://www.w3.org/2000/svg"
 width="1024.000000pt" height="1024.000000pt" viewBox="0 0 1024.000000 1024.000000"
 preserveAspectRatio="xMidYMid meet">

<g transform="translate(0.000000,1024.000000) scale(0.100000,-0.100000)"
fill="#7f5af0" stroke="none">
<path d="M5045 9479 c-21 -6 -73 -54 -155 -141 -452 -480 -617 -656 -705 -753
-55 -60 -239 -258 -410 -440 -347 -370 -350 -375 -349 -510 1 -203 181 -353
378 -315 34 6 79 22 101 35 37 21 320 319 853 895 l41 45 1 -1148 c0 -1225 0
-1222 50 -1434 122 -517 472 -964 950 -1216 140 -74 261 -122 395 -157 160
-41 246 -52 469 -59 l199 -6 27 -70 c39 -103 82 -179 156 -278 173 -230 439
-389 724 -432 364 -56 716 59 973 318 182 182 288 397 323 652 22 161 3 335
-54 505 -79 233 -239 438 -448 576 -307 202 -687 239 -1047 102 -168 -64 -391
-243 -495 -395 -47 -70 -126 -227 -144 -287 l-12 -38 -190 5 c-172 4 -203 7
-309 35 -423 110 -759 442 -877 865 -47 167 -50 252 -50 1384 0 587 4 1063 9
1063 4 0 75 -73 157 -162 82 -89 174 -189 205 -222 257 -280 489 -522 514
-538 45 -28 103 -41 175 -41 119 1 222 65 280 175 29 54 34 73 34 133 1 84
-23 159 -67 213 -18 22 -140 156 -272 298 -133 142 -265 286 -295 319 -30 32
-118 127 -195 210 -78 82 -206 220 -285 305 -351 379 -470 497 -509 509 -44
13 -103 13 -146 0z m3026 -4415 c212 -62 349 -242 349 -459 0 -169 -77 -311
-216 -401 -243 -156 -559 -65 -689 200 -35 71 -40 87 -43 173 -7 152 38 273
139 372 115 113 305 161 460 115z"/>
<path d="M2105 5714 c-398 -67 -748 -360 -877 -734 -45 -131 -53 -188 -52
-380 0 -167 3 -194 26 -282 31 -114 89 -241 155 -341 60 -91 218 -251 303
-306 330 -217 737 -251 1105 -91 143 61 335 220 444 365 52 69 129 217 153
293 l12 39 211 6 c271 7 453 41 665 124 128 50 320 157 430 239 61 46 113 84
116 84 2 0 3 -349 2 -776 l-3 -777 -91 -36 c-543 -218 -828 -800 -667 -1361
95 -331 366 -626 681 -740 150 -55 265 -72 437 -67 232 7 395 59 598 189 133
86 300 275 375 423 159 318 158 712 -4 1025 -126 244 -332 428 -598 535 l-81
33 -3 581 -2 580 -36 28 c-251 195 -342 283 -500 488 -46 60 -157 241 -196
320 -31 62 -97 220 -112 268 -9 27 -19 21 -65 -43 -54 -74 -163 -179 -254
-243 -219 -156 -443 -225 -741 -228 l-159 -1 -28 77 c-113 310 -385 570 -697
669 -176 55 -373 70 -547 40z m388 -677 c103 -48 180 -124 233 -231 39 -80 39
-80 39 -200 0 -119 -1 -122 -37 -199 -83 -173 -243 -277 -428 -277 -139 0
-243 42 -336 134 -104 104 -164 261 -148 386 20 156 120 306 247 372 90 46
146 58 252 55 90 -3 108 -7 178 -40z m2759 -2487 c247 -76 395 -327 333 -564
-46 -178 -185 -316 -355 -355 -159 -37 -337 15 -451 131 -186 188 -183 478 5
663 64 63 156 118 222 134 69 16 178 12 246 -9z"/>
</g>
</svg>

